# xmcd
#
# Track frame offsets:
#	150
#	21582
#	43656
#	62597
#	87388
#	109707
#	130989
#	152861
#	179448
#	202062
#
# Disc length: 3047 seconds
# Revision: 1
# Processed by: cddbd v1.5.2PL0 Copyright (c) Steve Scherf et al.
# Submitted via: dBpowerAMP V12.0
#
DISCID=8f0be50a
DTITLE=Quang Dung - Va...
DYEAR=2008
DGENRE=Pop
TTITLE0=Mot minh
TTITLE1=Mot mai em di
TTITLE2=Tieng dan toi
TTITLE3=Dau chan dia dang
TTITLE4=Du tinh yeu da mat
TTITLE5=Tren nhung thang ngay da qua
TTITLE6=Dem cuoi cung
TTITLE7=Tu giong hat em
TTITLE8=Suoi mo
TTITLE9=Da khuc cho tinh nhan
EXTD=
EXTT0=
EXTT1=
EXTT2=
EXTT3=
EXTT4=
EXTT5=
EXTT6=
EXTT7=
EXTT8=
EXTT9=
PLAYORDER=
